

<?xml version="1.0" encoding="UTF-8"?>
<svg id="Calque_1" data-name="Calque 1" xmlns="http://www.w3.org/2000/svg" viewBox="0 0 640 480">
  <defs>
    <style>
      .cls-1 {
        fill: #22c55e;
      }
    </style>
  </defs>
  <path class="cls-1" d="m150.29,428.68c14.98-20.85,27.19-42.37,36.35-65.95-1.56-.97-3.03-1.86-4.47-2.77-29.1-18.32-53.46-41.1-68.11-71.94-24.47-51.51-16.75-99.86,18.45-144.21,26.58-33.49,62.3-55.17,103.26-68.18,80.4-25.53,158.94-21.16,234.39,17.33,26.6,13.57,49.21,32.09,66.93,55.81,40.44,54.14,37.35,121.3-7.98,172.76-29.86,33.89-68.24,54.86-111.82,67.3-46.96,13.41-94.64,15.15-142.71,6.14-3.06-.57-5.4-.15-7.97,1.81-19.36,14.8-39.96,27.5-64.05,33.98-15.72,4.23-31.47,4.98-47.16-.21-1.5-.5-2.97-1.08-5.11-1.86Z"/>
  <circle cx="332.96" cy="229.4" r="23.25"/>
  <circle cx="222.96" cy="229.4" r="23.25"/>
  <circle cx="442.96" cy="229.4" r="23.25"/>
</svg>