<?xml version="1.0" encoding="UTF-8"?>
<svg id="Calque_1" data-name="Calque 1" xmlns="http://www.w3.org/2000/svg" viewBox="0 0 640 480">
  <defs>
    <style>
      .cls-1 {
        fill: #fff;
      }

      .cls-2 {
        fill: #22c55e;
        stroke: #000;
        stroke-miterlimit: 10;
      }
    </style>
  </defs>
  <path class="cls-2" d="m512.11,254.37v69c-.2.3-.51.57-.6.9-4.03,13.96-13.13,20.83-27.63,20.85-5.45,0-10.89,0-16.75,0,0,4.7.15,9.04-.03,13.37-.77,19.08-15.44,35.69-34.23,38.38-6.09.87-12.33.75-18.82,1.1,0,4.89-.3,9.75.07,14.56.53,6.99-1.8,12.12-8.3,15.09h-5.99c-16.4-9.41-32.78-18.87-49.25-28.16-1.94-1.1-4.41-1.76-6.64-1.76-42.27-.1-84.55-.05-126.82-.12-3.83,0-7.77-.26-11.48-1.13-18.74-4.39-31.53-20.5-31.85-39.79-.06-3.81,0-7.63,0-11.54-6.22,0-11.83.02-17.44,0-16.29-.06-27.45-11.24-27.48-27.59-.03-18.99-.02-37.98,0-56.98.02-16.84,11.07-27.9,27.88-27.93,5.57,0,11.14,0,17.18,0-.92-14,.2-27.14,9.73-38.03,9.44-10.78,21.57-15.09,35.9-14.53-.61-11.8-.45-23.02,7.38-32.4,7.74-9.28,17.89-13.02,29.79-12.62v-25.81c-1.12-.52-2.14-.99-3.14-1.47-23.45-11.4-25.97-43.65-4.33-58.16,4.22-2.83,9.53-4.03,14.33-5.99,2.99,0,5.99,0,8.98,0,2.26.66,4.55,1.2,6.76,1.99,12.86,4.6,21.76,16.58,22.37,29.98.63,13.82-6.96,26.45-19.39,32.41-1.11.53-2.83,1.5-2.85,2.3-.21,8.19-.13,16.38-.13,24.56h82.32c0-7.49-.15-14.72.08-21.94.09-2.81-.85-4.04-3.35-5.24-23.48-11.29-25.96-43.58-4.32-58.08,4.22-2.83,9.52-4.03,14.33-5.98,2.99,0,5.99,0,8.98,0,.7.23,1.38.54,2.1.69,14.49,3,25.03,14.51,26.92,29.43,1.76,13.86-6.26,28.07-19.33,34.24-.98.46-1.96.92-2.7,1.26v25.76c.86.05,1.47.1,2.08.11,21.31.44,35.07,14.52,35.1,35.91,0,2.95,0,5.91,0,8.62,4.93.56,9.46.63,13.77,1.63,18.75,4.35,31.53,20.44,31.87,39.77.07,3.81,0,7.63,0,11.58,6.69,0,12.8-.07,18.9.02,11.67.17,21.39,7.51,24.88,18.65.33,1.04.76,2.05,1.14,3.08Z"/>
  <path class="cls-1" d="m391.32,397.8c-11.37-6.51-22.1-12.55-32.72-18.79-3.67-2.15-7.41-3.13-11.69-3.12-43.27.1-86.54.06-129.82.06-13.79,0-21.15-7.42-21.15-21.34,0-43.36,0-86.71,0-130.07,0-13.63,7.43-21.09,21.02-21.09,68.84,0,137.67,0,206.51,0,13.56,0,20.99,7.47,20.99,21.12,0,43.48,0,86.96,0,130.44,0,13.38-7.51,20.92-20.8,20.94-6.73,0-13.47-.03-20.2.01-7.49.05-12.06,4.66-12.13,12.18-.03,2.98,0,5.97,0,9.66Zm-71.01-44.33c16.43-.39,30.75-5.9,42.75-17.17,5.29-4.97,5.88-11.87,1.54-16.67-4.39-4.86-11.12-4.86-16.66,0-17.21,15.11-38.24,15.13-55.43.04-5.57-4.88-12.24-4.92-16.66-.09-4.37,4.78-3.81,11.69,1.46,16.65,12.09,11.37,26.52,16.92,43,17.23Zm-18.85-94.86c-.37-17.85-15.45-32.57-33.45-32.65-18.17-.09-33.48,14.67-33.85,32.63-.14,6.76,4.22,11.89,10.46,12.32,6.34.44,11.4-4.31,11.96-11.23.54-6.66,5.1-11.23,11.22-11.23,6.13,0,10.7,4.56,11.24,11.22.56,6.9,5.63,11.67,11.94,11.24,6.25-.42,10.62-5.56,10.48-12.31Zm104.8,0c-.37-17.85-15.45-32.57-33.45-32.65-18.17-.09-33.48,14.67-33.85,32.63-.14,6.76,4.22,11.89,10.46,12.32,6.34.44,11.4-4.31,11.96-11.23.54-6.66,5.1-11.23,11.22-11.23,6.13,0,10.7,4.56,11.24,11.22.56,6.9,5.63,11.67,11.94,11.24,6.25-.42,10.62-5.56,10.48-12.31Z"/>
  <path class="cls-1" d="m279.48,78.63c0,6.06-5.08,11.18-11.13,11.23-6.19.05-11.41-5.23-11.3-11.43.1-6.07,5.26-11.1,11.31-11.04,6.06.06,11.12,5.17,11.12,11.24Z"/>
  <path class="cls-1" d="m383.48,78.63c0,6.06-5.08,11.18-11.13,11.23-6.19.05-11.41-5.23-11.3-11.43.1-6.07,5.26-11.1,11.31-11.04,6.06.06,11.12,5.17,11.12,11.24Z"/>
  <path class="cls-1" d="m398.93,179h-157.04c0-4.44-.41-8.81.1-13.06.67-5.57,5.49-9.25,11.41-9.29,9.35-.07,18.7-.02,28.05-.02,34.66,0,69.32,0,103.97,0,9.27,0,13.49,4.21,13.51,13.44,0,2.86,0,5.71,0,8.93Z"/>
  <path class="cls-1" d="m170,256.85v67.46c-6.35,0-12.54.15-18.72-.07-3.01-.11-3.59-2.48-3.59-5.13.04-13.73.02-27.46.02-41.19,0-5.37.05-10.73-.02-16.1-.05-3.45,1.5-5.04,4.96-5,5.7.07,11.4.02,17.35.02Z"/>
  <path class="cls-1" d="m472,324.4v-67.4c6.33,0,12.76-.22,19.15.1,2.72.14,3.15,2.66,3.15,5.13-.04,17.1-.02,34.19-.02,51.29,0,2.25.03,4.49-.02,6.74-.06,2.51-1.36,4.07-3.88,4.11-6.07.1-12.14.03-18.38.03Z"/>
</svg>